<svg width="757" height="130" viewBox="0 0 757 130" fill="none" xmlns="http://www.w3.org/2000/svg">
<path d="M17 129.7C16.1 129.7 15.1667 129.55 14.2 129.25C13.2667 128.983 12.45 128.683 11.75 128.35C10.0833 127.55 9.25 126.467 9.25 125.1C9.25 121.1 13.9333 117.267 23.3 113.6C26.6333 112.3 29.9333 111.183 33.2 110.25C36.5 109.283 39.9 108.483 43.4 107.85C43.6333 107.183 43.8667 105.967 44.1 104.2C44.3667 102.4 44.6667 99.7833 45 96.35C44.8667 96.5833 44.7 96.8 44.5 97C44.3333 97.2 44.2167 97.35 44.15 97.45C43.2833 98.4167 42.25 99.5333 41.05 100.8C39.85 102.033 38.4333 103.483 36.8 105.15C35.1 106.883 33.4667 108.217 31.9 109.15C30.3667 110.083 29.0667 110.55 28 110.55C26.5667 110.55 25.4667 110.25 24.7 109.65C23.9667 109.017 23.6 108.167 23.6 107.1C23.6 105.1 24.9 102.033 27.5 97.9C30.1333 93.7333 31.45 91.0333 31.45 89.8C31.45 88.8333 31.1667 88.1 30.6 87.6C30.0333 87.1 28.9833 86.85 27.45 86.85C24.1167 86.85 20.35 87.8333 16.15 89.8C12.0167 91.8 9.25 94.0167 7.85 96.45C7.11667 97.8167 6.75 98.8667 6.75 99.6C6.75 100.633 7.46667 101.15 8.9 101.15C9.23333 101.15 9.71667 101.1 10.35 101C11.0167 100.9 11.4833 100.85 11.75 100.85C12.0833 100.85 12.25 100.933 12.25 101.1C12.25 101.533 11.6667 101.867 10.5 102.1C10.0667 102.2 9.53333 102.3 8.9 102.4C8.26667 102.467 7.78333 102.5 7.45 102.5C4.85 102.5 3.55 101.633 3.55 99.9C3.55 99.1333 3.81667 98.2833 4.35 97.35C5.18333 95.8833 6.55 94.4667 8.45 93.1C10.35 91.7 12.5167 90.4 14.95 89.2C17.35 88.0333 19.5667 87.1167 21.6 86.45C23.6667 85.7833 25.7167 85.45 27.75 85.45C29.7833 85.45 31.4167 85.75 32.65 86.35C33.9167 86.9167 34.55 87.8667 34.55 89.2C34.55 89.8333 34.4167 90.6167 34.15 91.55C33.9167 92.4833 33.5167 93.4333 32.95 94.4C32.4167 95.2667 31.6333 96.4833 30.6 98.05C29.6 99.6167 28.55 101.483 27.45 103.65C27.05 104.417 26.7667 105.117 26.6 105.75C26.4667 106.383 26.4 106.933 26.4 107.4C26.4 108.367 26.85 108.85 27.75 108.85C29.95 108.85 32.9667 106.967 36.8 103.2C38.3 101.7 39.7333 100.133 41.1 98.5C42.5 96.8667 43.8667 95.1833 45.2 93.45L45.45 91.8C45.5167 91.5333 45.7667 91.1667 46.2 90.7C46.6667 90.2333 47.1167 89.8333 47.55 89.5C47.9167 89.2 48.3 88.95 48.7 88.75C49.1333 88.55 49.5167 88.45 49.85 88.45C50.3167 88.45 50.55 88.6667 50.55 89.1C50.55 89.2333 50.5333 89.3167 50.5 89.35L49.95 90.5C49.6167 91.1667 49.2833 92.15 48.95 93.45C48.65 94.75 48.3333 96.3167 48 98.15C47.8333 99.1833 47.5833 100.5 47.25 102.1C46.9167 103.7 46.4833 105.533 45.95 107.6H46.55C47.0833 107.6 47.6 107.617 48.1 107.65C48.6333 107.683 49.1667 107.75 49.7 107.85C51.2 108.083 51.95 108.5 51.95 109.1C51.95 109.467 51.7167 109.65 51.25 109.65C51.15 109.65 51.05 109.65 50.95 109.65C50.8833 109.617 50.8 109.583 50.7 109.55C49.6 109.15 48.5667 108.95 47.6 108.95C47.3 108.95 46.9667 108.967 46.6 109C46.2667 109.033 45.9 109.083 45.5 109.15C44.5333 111.85 43.25 114.367 41.65 116.7C40.0833 119.033 38.05 121.167 35.55 123.1C32.8167 125.233 29.8667 126.867 26.7 128C23.5667 129.133 20.3333 129.7 17 129.7ZM17.15 127.15C18.65 127.15 20.1333 127.033 21.6 126.8C23.0667 126.567 24.4833 126.217 25.85 125.75C27.7167 125.117 29.55 124.217 31.35 123.05C33.1833 121.917 34.9333 120.55 36.6 118.95C38.2 117.383 39.4833 115.833 40.45 114.3C41.4167 112.767 42.2167 111.183 42.85 109.55C39.9167 109.983 36.9 110.633 33.8 111.5C30.7333 112.367 27.5 113.483 24.1 114.85C19.8 116.55 16.7 118.183 14.8 119.75C12.9 121.35 11.95 122.983 11.95 124.65C11.95 126.317 13.6833 127.15 17.15 127.15ZM66.4855 113.35C63.1522 113.35 60.8355 112.867 59.5355 111.9C58.2689 110.9 57.6355 109.533 57.6355 107.8C57.6355 106.7 57.9522 105.533 58.5855 104.3C55.8189 103.233 54.4355 101.617 54.4355 99.45C54.4355 97.9167 54.8022 96.5333 55.5355 95.3C56.2689 94.0667 57.2355 92.9667 58.4355 92C59.6689 91.0333 61.0022 90.1833 62.4355 89.45C63.3355 88.9833 64.5189 88.5 65.9855 88C67.4522 87.5 69.0689 87.0167 70.8355 86.55C72.6022 86.0833 74.3855 85.7 76.1855 85.4C77.9855 85.0667 79.6522 84.85 81.1855 84.75C81.6522 84.7167 82.1189 84.7 82.5855 84.7C83.0855 84.6667 83.5855 84.65 84.0855 84.65C85.8522 84.65 87.5855 84.7833 89.2855 85.05C90.9855 85.3167 92.5189 85.7833 93.8855 86.45C95.2855 87.0833 96.4022 87.9833 97.2356 89.15C98.0689 90.3167 98.4855 91.7833 98.4855 93.55C98.4855 94.7167 98.2522 95.9333 97.7855 97.2C97.3189 98.4667 96.5022 99.7667 95.3355 101.1C93.8355 102.833 92.0189 104.417 89.8855 105.85C87.7855 107.25 85.3355 108.517 82.5355 109.65C79.7355 110.783 77.0022 111.683 74.3355 112.35C71.7022 113.017 69.0855 113.35 66.4855 113.35ZM62.7855 110.9C63.4855 111.2 64.2355 111.417 65.0355 111.55C65.8355 111.683 66.6522 111.75 67.4855 111.75C69.1189 111.75 70.7855 111.567 72.4855 111.2C74.1855 110.8 75.8189 110.317 77.3855 109.75C78.9522 109.15 80.3189 108.567 81.4855 108C82.8855 107.3 84.4022 106.4 86.0355 105.3C87.7022 104.167 89.2689 102.917 90.7355 101.55C92.2022 100.15 93.4022 98.7 94.3355 97.2C95.3022 95.7 95.7855 94.2333 95.7855 92.8C95.7855 91.5 95.3689 90.4333 94.5355 89.6C93.7355 88.7333 92.8189 88.1167 91.7855 87.75C90.5855 87.2833 89.3189 86.9667 87.9855 86.8C86.6522 86.6 85.3022 86.5 83.9355 86.5C81.8355 86.5 79.7355 86.6833 77.6355 87.05C75.5689 87.4167 73.6022 87.8667 71.7355 88.4C69.9022 88.9333 68.2689 89.5 66.8355 90.1C65.4022 90.6667 64.2855 91.1667 63.4855 91.6C62.2189 92.3 61.0355 93.0667 59.9355 93.9C58.8355 94.7333 57.9355 95.6167 57.2355 96.55C56.5689 97.4833 56.2355 98.45 56.2355 99.45C56.2355 100.417 56.4355 101.217 56.8355 101.85C57.2689 102.483 58.0355 102.95 59.1355 103.25C60.3022 101.483 61.8022 99.7333 63.6355 98C65.5022 96.2333 67.5689 94.6333 69.8355 93.2C72.1355 91.7667 74.4855 90.6167 76.8855 89.75C79.3189 88.85 81.6689 88.4 83.9355 88.4H84.0855C84.5855 88.4 84.8355 88.55 84.8355 88.85C84.8355 89.1833 84.5355 89.4 83.9355 89.5C81.9355 89.7667 79.8855 90.3333 77.7855 91.2C75.6855 92.0667 73.6522 93.1667 71.6855 94.5C69.7522 95.8 67.9522 97.25 66.2855 98.85C64.6522 100.417 63.2689 102.05 62.1355 103.75C62.5355 103.817 62.9189 103.867 63.2855 103.9C63.6855 103.933 64.0689 103.95 64.4355 103.95C68.1355 103.95 71.8855 102.55 75.6855 99.75C76.5522 99.1167 77.1355 98.6833 77.4355 98.45C77.7689 98.2167 77.9189 98.1 77.8855 98.1C78.1855 98.1 78.3355 98.2333 78.3355 98.5C76.6355 100.4 74.5522 101.917 72.0855 103.05C69.3522 104.317 66.6522 104.95 63.9855 104.95C63.5522 104.95 63.1522 104.933 62.7855 104.9C62.4189 104.833 62.0522 104.767 61.6855 104.7C61.1189 105.5 60.8355 106.467 60.8355 107.6C60.8355 108.267 60.9689 108.9 61.2355 109.5C61.5355 110.1 62.0522 110.567 62.7855 110.9ZM134.93 115.6C133.997 115.6 133.164 115.283 132.43 114.65C131.73 114.017 131.38 113.083 131.38 111.85C131.38 108.917 132.647 104.45 135.18 98.45C133.947 99.7833 132.73 101.133 131.53 102.5C130.33 103.833 129.08 105.183 127.78 106.55C125.947 108.483 124.23 109.95 122.63 110.95C121.03 111.95 119.697 112.45 118.63 112.45C117.264 112.45 116.28 112.15 115.68 111.55C115.114 110.95 114.83 110.133 114.83 109.1C114.83 107.233 115.864 104.583 117.93 101.15C118.664 99.95 119.43 98.7167 120.23 97.45C121.064 96.1833 121.897 94.8833 122.73 93.55C123.297 92.65 123.664 91.9167 123.83 91.35C123.997 90.75 124.08 90.2333 124.08 89.8C124.08 87.8333 122.53 86.85 119.43 86.85C117.697 86.85 115.947 87.1167 114.18 87.65C112.414 88.15 110.497 88.8833 108.43 89.85C106.33 90.85 104.647 91.9 103.38 93C102.114 94.1 101.147 95.25 100.48 96.45C99.7138 97.7833 99.3305 98.8333 99.3305 99.6C99.3305 100.633 100.064 101.15 101.53 101.15C101.864 101.15 102.33 101.1 102.93 101C103.63 100.9 104.114 100.85 104.38 100.85C104.714 100.85 104.88 100.933 104.88 101.1C104.88 101.5 104.297 101.833 103.13 102.1C102.697 102.2 102.164 102.267 101.53 102.3C100.93 102.333 100.464 102.35 100.13 102.35C97.4638 102.35 96.1305 101.483 96.1305 99.75C96.1305 98.9833 96.3971 98.1333 96.9305 97.2C97.7971 95.7333 99.0138 94.35 100.58 93.05C102.147 91.7167 104.197 90.45 106.73 89.25C109.197 88.0833 111.664 87.2 114.13 86.6C116.63 85.9667 118.897 85.65 120.93 85.65C124.964 85.65 126.98 86.9833 126.98 89.65C126.98 91.0167 126.397 92.6667 125.23 94.6C125.197 94.6333 124.98 94.9667 124.58 95.6C124.214 96.2 123.73 97 123.13 98C122.53 98.9667 121.88 100.033 121.18 101.2C120.514 102.333 119.88 103.483 119.28 104.65C118.747 105.65 118.364 106.567 118.13 107.4C117.93 108.2 117.83 108.833 117.83 109.3C117.83 110.267 118.264 110.75 119.13 110.75C120.197 110.75 121.414 110.283 122.78 109.35C124.18 108.417 125.797 107.017 127.63 105.15C128.564 104.217 129.43 103.267 130.23 102.3C131.03 101.333 131.88 100.267 132.78 99.1C133.68 97.9333 134.697 96.6167 135.83 95.15C136.364 94.4833 136.914 93.6833 137.48 92.75C138.08 91.8167 138.647 90.8833 139.18 89.95C139.747 88.9833 140.247 88.1333 140.68 87.4C141.147 86.6667 141.497 86.1667 141.73 85.9C141.864 85.7667 142.164 85.6167 142.63 85.45C143.13 85.25 143.564 85.1 143.93 85C144.097 84.9667 144.23 84.95 144.33 84.95C144.464 84.9167 144.597 84.9 144.73 84.9C145.197 84.9 145.514 84.9833 145.68 85.15C145.847 85.3167 145.897 85.4833 145.83 85.65C144.797 87.25 143.73 88.8667 142.63 90.5C141.564 92.1333 140.58 93.6833 139.68 95.15C138.814 96.6167 138.13 97.9333 137.63 99.1C136.497 101.633 135.63 103.933 135.03 106C134.464 108.033 134.18 109.817 134.18 111.35C134.18 113.35 134.73 114.35 135.83 114.35C136.164 114.35 136.664 114.117 137.33 113.65C137.997 113.183 138.364 112.95 138.43 112.95C138.797 112.95 138.98 113.1 138.98 113.4C138.98 113.8 138.464 114.267 137.43 114.8C136.364 115.333 135.53 115.6 134.93 115.6ZM173.007 115.8C171.774 115.8 170.341 115.333 168.707 114.4C167.107 113.467 165.224 112.067 163.057 110.2C161.591 108.9 160.174 107.5 158.807 106C157.441 104.5 156.174 103.017 155.007 101.55C154.307 101.617 153.574 101.567 152.807 101.4C150.674 104.633 149.007 107.267 147.807 109.3C146.607 111.333 146.007 112.867 146.007 113.9C146.007 114.067 146.024 114.2 146.057 114.3V114.65C146.057 115.117 145.841 115.35 145.407 115.35C144.741 115.35 144.407 114.9 144.407 114C144.407 111.633 146.374 107.183 150.307 100.65C148.274 99.9167 147.257 98.8833 147.257 97.55C147.257 96.8167 147.591 96.15 148.257 95.55C148.957 94.95 149.774 94.65 150.707 94.65C151.741 94.65 152.624 95.05 153.357 95.85C153.824 95.1833 154.407 94.3667 155.107 93.4C155.807 92.4 156.624 91.2833 157.557 90.05C157.924 89.6833 158.457 89.4667 159.157 89.4C159.857 89.3333 160.591 89.3 161.357 89.3C161.924 89.3 162.207 89.4167 162.207 89.65C162.207 89.75 162.141 89.8667 162.007 90C159.574 92.6333 157.357 95.35 155.357 98.15L157.707 100.9C159.574 100.8 161.274 100.567 162.807 100.2C164.341 99.8 165.941 99.3167 167.607 98.75C171.774 97.2833 174.374 95.4167 175.407 93.15C175.574 92.8167 175.674 92.5333 175.707 92.3C175.741 92.0667 175.757 91.8333 175.757 91.6C175.757 89.3667 173.891 87.9833 170.157 87.45C167.557 87.05 164.641 86.85 161.407 86.85C157.874 86.85 154.391 87.1 150.957 87.6C147.524 88.0667 144.124 88.7833 140.757 89.75C140.591 89.7833 140.441 89.8167 140.307 89.85C140.207 89.85 140.124 89.85 140.057 89.85C139.757 89.85 139.607 89.75 139.607 89.55C139.607 89.15 139.957 88.7 140.657 88.2C141.257 87.7333 141.857 87.4333 142.457 87.3C147.057 86.1 152.457 85.5 158.657 85.5C163.091 85.5 167.324 85.85 171.357 86.55C176.124 87.4167 178.507 89.2167 178.507 91.95C178.507 92.7833 178.224 93.6833 177.657 94.65C176.324 96.7833 173.891 98.4833 170.357 99.75C168.924 100.283 167.524 100.717 166.157 101.05C164.824 101.383 163.257 101.6 161.457 101.7C160.957 101.733 160.441 101.767 159.907 101.8C159.407 101.8 158.891 101.783 158.357 101.75C159.257 102.883 160.291 104.05 161.457 105.25C162.624 106.45 164.041 107.783 165.707 109.25C167.707 110.983 169.291 112.233 170.457 113C171.657 113.8 172.724 114.2 173.657 114.2C174.724 114.2 175.274 113.783 175.307 112.95V112.7C175.307 112.133 175.224 111.683 175.057 111.35C175.057 111.283 175.041 111.25 175.007 111.25C175.007 111.217 175.007 111.183 175.007 111.15C175.007 110.917 175.124 110.8 175.357 110.8C176.057 110.8 176.407 111.467 176.407 112.8C176.407 113.167 176.357 113.533 176.257 113.9C176.157 114.267 175.941 114.583 175.607 114.85C174.907 115.483 174.041 115.8 173.007 115.8ZM150.707 100L152.207 97.6C151.774 96.9667 151.274 96.65 150.707 96.65C149.774 96.65 149.307 97.1333 149.307 98.1C149.307 98.8667 149.774 99.5 150.707 100ZM154.507 100.85L153.807 99.85L153.157 100.65C153.324 100.683 153.524 100.717 153.757 100.75C154.024 100.783 154.274 100.817 154.507 100.85ZM200.83 113.8C197.764 113.8 195.33 113.383 193.53 112.55C191.764 111.75 190.88 110.667 190.88 109.3C190.88 106.9 192.78 104.6 196.58 102.4C200.114 100.367 203.48 99.35 206.68 99.35C208.014 99.35 208.68 99.7 208.68 100.4C208.68 102.3 206.564 104.2 202.33 106.1C201.797 106.333 201.33 106.533 200.93 106.7C200.53 106.833 200.214 106.9 199.98 106.9C199.68 106.9 199.53 106.85 199.53 106.75C199.53 106.583 199.68 106.4 199.98 106.2C200.314 106 200.597 105.85 200.83 105.75C203.164 104.717 204.83 103.5 205.83 102.1C206.064 101.8 206.18 101.533 206.18 101.3C206.18 101.1 206.047 101 205.78 101C203.18 101 200.38 101.783 197.38 103.35C194.114 105.05 192.48 106.867 192.48 108.8C192.48 110.6 195.047 111.5 200.18 111.5C204.114 111.5 208.497 110.95 213.33 109.85C213.83 109.75 214.53 109.567 215.43 109.3C216.33 109.033 217.297 108.717 218.33 108.35C219.397 107.95 220.397 107.5 221.33 107C222.297 106.5 223.08 105.967 223.68 105.4C224.28 104.8 224.58 104.183 224.58 103.55C224.58 102.75 224.08 102.017 223.08 101.35C222.08 100.683 220.797 100.083 219.23 99.55C217.697 99.0167 216.064 98.5333 214.33 98.1C212.597 97.6333 210.997 97.2333 209.53 96.9C208.764 96.7 207.864 96.4 206.83 96C205.797 95.5667 204.897 95.05 204.13 94.45C203.364 93.8167 202.98 93.1167 202.98 92.35C202.98 91.1833 203.664 90.0667 205.03 89C206.43 87.9 208.397 86.9333 210.93 86.1C213.064 85.4333 215.114 84.95 217.08 84.65C219.08 84.3167 220.93 84.15 222.63 84.15C224.797 84.15 226.347 84.4167 227.28 84.95C228.247 85.45 228.73 86.1333 228.73 87C228.73 87.4333 228.564 88 228.23 88.7C227.897 89.4 227.48 90.0333 226.98 90.6C226.48 91.1333 225.98 91.4 225.48 91.4C225.08 91.4 224.88 91.2833 224.88 91.05C224.88 90.8833 225.064 90.65 225.43 90.35C225.797 90.05 226.164 89.7 226.53 89.3C226.897 88.9 227.08 88.4833 227.08 88.05C227.08 87.3833 226.697 86.9333 225.93 86.7C225.197 86.4667 224.097 86.35 222.63 86.35C221.897 86.35 221.03 86.4 220.03 86.5C219.064 86.5667 218.047 86.7 216.98 86.9C216.014 87.0667 214.847 87.3 213.48 87.6C212.147 87.9 210.897 88.3 209.73 88.8C207.13 89.9 205.83 90.9167 205.83 91.85C205.83 92.95 207.564 93.9 211.03 94.7C214.43 95.4667 217.03 96.0667 218.83 96.5C220.664 96.9333 221.714 97.1833 221.98 97.25C223.947 97.8833 225.297 98.65 226.03 99.55C226.797 100.417 227.18 101.35 227.18 102.35C227.18 103.017 226.947 103.75 226.48 104.55C226.047 105.317 225.364 106.033 224.43 106.7C223.064 107.733 221.564 108.7 219.93 109.6C218.297 110.467 216.264 111.233 213.83 111.9C211.53 112.533 209.297 113 207.13 113.3C204.997 113.633 202.897 113.8 200.83 113.8ZM244.334 114.15C243.301 114.15 242.401 113.933 241.634 113.5C240.901 113.067 240.534 112.333 240.534 111.3C240.534 110.033 240.868 108.433 241.534 106.5C242.201 104.567 243.268 102.283 244.734 99.65C245.768 97.7833 246.818 96.0167 247.884 94.35C248.951 92.6833 250.151 90.9833 251.484 89.25L242.434 91.4C240.734 91.8 239.101 92.0833 237.534 92.25C235.968 92.4167 234.468 92.5 233.034 92.5C231.134 92.5 229.734 92.25 228.834 91.75C227.968 91.2167 227.534 90.5667 227.534 89.8C227.534 89.3333 227.751 88.8333 228.184 88.3C228.784 87.5667 229.584 86.9167 230.584 86.35C231.584 85.7833 232.868 85.3 234.434 84.9C235.701 84.5667 237.051 84.3167 238.484 84.15C239.918 83.9833 241.301 83.9 242.634 83.9C243.901 83.9 244.951 83.95 245.784 84.05C246.618 84.1167 247.301 84.2333 247.834 84.4C248.301 84.5667 248.534 84.7667 248.534 85C248.534 85.2333 248.351 85.3167 247.984 85.25C247.951 85.25 247.484 85.1667 246.584 85C245.684 84.8333 244.351 84.7833 242.584 84.85C236.751 85.0833 232.834 86.15 230.834 88.05C230.368 88.4833 230.134 88.85 230.134 89.15C230.134 89.5833 230.534 89.8667 231.334 90C232.134 90.1333 233.101 90.2 234.234 90.2C235.401 90.2 236.934 90.05 238.834 89.75C240.768 89.4167 242.784 89.0333 244.884 88.6C246.018 88.3667 247.001 88.1667 247.834 88C248.668 87.8333 249.501 87.6667 250.334 87.5C251.168 87.3333 252.134 87.1333 253.234 86.9C253.334 86.7667 253.518 86.5333 253.784 86.2C254.084 85.8667 254.301 85.6333 254.434 85.5C254.668 85.2667 255.168 85.0833 255.934 84.95C256.701 84.8167 257.484 84.75 258.284 84.75C258.818 84.75 259.084 84.8333 259.084 85C259.084 85.0667 258.734 85.4833 258.034 86.25C259.301 86.0833 260.451 85.95 261.484 85.85C262.518 85.75 263.584 85.7 264.684 85.7C265.784 85.7 266.968 85.8167 268.234 86.05C269.501 86.25 270.701 86.5833 271.834 87.05C272.968 87.4833 273.884 88.0667 274.584 88.8C275.318 89.5 275.684 90.3333 275.684 91.3C275.684 91.8333 275.484 92.1 275.084 92.1C274.851 92.1 274.701 91.95 274.634 91.65C274.568 91.3833 274.484 91.1333 274.384 90.9C274.284 90.6667 274.201 90.4833 274.134 90.35C273.568 89.4833 272.734 88.85 271.634 88.45C270.534 88.05 269.368 87.7833 268.134 87.65C266.901 87.5167 265.784 87.45 264.784 87.45C263.451 87.45 262.101 87.5333 260.734 87.7C259.368 87.8333 257.818 88.05 256.084 88.35C254.551 90.1167 253.134 91.8833 251.834 93.65C250.568 95.4167 249.351 97.2333 248.184 99.1C245.151 104.033 243.634 108.067 243.634 111.2C243.634 112.5 243.901 113.15 244.434 113.15C244.568 113.15 244.784 113.1 245.084 113C245.418 112.9 245.734 112.767 246.034 112.6C246.734 112.2 247.101 112 247.134 112C247.501 112 247.684 112.15 247.684 112.45C247.684 112.85 247.268 113.217 246.434 113.55C245.534 113.95 244.834 114.15 244.334 114.15ZM306.073 115.6C305.14 115.6 304.306 115.283 303.573 114.65C302.873 114.017 302.523 113.083 302.523 111.85C302.523 108.917 303.79 104.45 306.323 98.45C305.09 99.7833 303.873 101.133 302.673 102.5C301.473 103.833 300.223 105.183 298.923 106.55C297.09 108.483 295.373 109.95 293.773 110.95C292.173 111.95 290.84 112.45 289.773 112.45C288.406 112.45 287.423 112.15 286.823 111.55C286.256 110.95 285.973 110.133 285.973 109.1C285.973 107.233 287.006 104.583 289.073 101.15C289.806 99.95 290.573 98.7167 291.373 97.45C292.206 96.1833 293.04 94.8833 293.873 93.55C294.44 92.65 294.806 91.9167 294.973 91.35C295.14 90.75 295.223 90.2333 295.223 89.8C295.223 87.8333 293.673 86.85 290.573 86.85C288.84 86.85 287.09 87.1167 285.323 87.65C283.556 88.15 281.64 88.8833 279.573 89.85C277.473 90.85 275.79 91.9 274.523 93C273.256 94.1 272.29 95.25 271.623 96.45C270.856 97.7833 270.473 98.8333 270.473 99.6C270.473 100.633 271.206 101.15 272.673 101.15C273.006 101.15 273.473 101.1 274.073 101C274.773 100.9 275.256 100.85 275.523 100.85C275.856 100.85 276.023 100.933 276.023 101.1C276.023 101.5 275.44 101.833 274.273 102.1C273.84 102.2 273.306 102.267 272.673 102.3C272.073 102.333 271.606 102.35 271.273 102.35C268.606 102.35 267.273 101.483 267.273 99.75C267.273 98.9833 267.54 98.1333 268.073 97.2C268.94 95.7333 270.156 94.35 271.723 93.05C273.29 91.7167 275.34 90.45 277.873 89.25C280.34 88.0833 282.806 87.2 285.273 86.6C287.773 85.9667 290.04 85.65 292.073 85.65C296.106 85.65 298.123 86.9833 298.123 89.65C298.123 91.0167 297.54 92.6667 296.373 94.6C296.34 94.6333 296.123 94.9667 295.723 95.6C295.356 96.2 294.873 97 294.273 98C293.673 98.9667 293.023 100.033 292.323 101.2C291.656 102.333 291.023 103.483 290.423 104.65C289.89 105.65 289.506 106.567 289.273 107.4C289.073 108.2 288.973 108.833 288.973 109.3C288.973 110.267 289.406 110.75 290.273 110.75C291.34 110.75 292.556 110.283 293.923 109.35C295.323 108.417 296.94 107.017 298.773 105.15C299.706 104.217 300.573 103.267 301.373 102.3C302.173 101.333 303.023 100.267 303.923 99.1C304.823 97.9333 305.84 96.6167 306.973 95.15C307.506 94.4833 308.056 93.6833 308.623 92.75C309.223 91.8167 309.79 90.8833 310.323 89.95C310.89 88.9833 311.39 88.1333 311.823 87.4C312.29 86.6667 312.64 86.1667 312.873 85.9C313.006 85.7667 313.306 85.6167 313.773 85.45C314.273 85.25 314.706 85.1 315.073 85C315.24 84.9667 315.373 84.95 315.473 84.95C315.606 84.9167 315.74 84.9 315.873 84.9C316.34 84.9 316.656 84.9833 316.823 85.15C316.99 85.3167 317.04 85.4833 316.973 85.65C315.94 87.25 314.873 88.8667 313.773 90.5C312.706 92.1333 311.723 93.6833 310.823 95.15C309.956 96.6167 309.273 97.9333 308.773 99.1C307.64 101.633 306.773 103.933 306.173 106C305.606 108.033 305.323 109.817 305.323 111.35C305.323 113.35 305.873 114.35 306.973 114.35C307.306 114.35 307.806 114.117 308.473 113.65C309.14 113.183 309.506 112.95 309.573 112.95C309.94 112.95 310.123 113.1 310.123 113.4C310.123 113.8 309.606 114.267 308.573 114.8C307.506 115.333 306.673 115.6 306.073 115.6ZM326.15 114.95C325.417 114.95 324.467 114.883 323.3 114.75C322.133 114.65 320.9 114.467 319.6 114.2C318.3 113.933 317.067 113.567 315.9 113.1C314.733 112.633 313.783 112.05 313.05 111.35C312.317 110.617 311.95 109.75 311.95 108.75C311.95 107.35 312.35 106.183 313.15 105.25C313.95 104.283 314.967 103.5 316.2 102.9C317.433 102.3 318.717 101.85 320.05 101.55C321.417 101.217 322.65 101.017 323.75 100.95C324.083 100.35 324.533 99.5667 325.1 98.6C325.667 97.6 326.283 96.5333 326.95 95.4C327.65 94.2333 328.35 93.1 329.05 92C329.783 90.9 330.467 89.9167 331.1 89.05C331.733 88.15 332.267 87.4833 332.7 87.05C333.2 86.5833 333.717 86.2667 334.25 86.1C334.817 85.9333 335.433 85.85 336.1 85.85C336.367 85.85 336.733 85.9167 337.2 86.05C337.7 86.15 337.967 86.35 338 86.65C337.933 86.95 337.733 87.2667 337.4 87.6C337.1 87.9 336.85 88.1667 336.65 88.4C334.45 90.8333 332.567 93.05 331 95.05C329.467 97.05 328.117 99 326.95 100.9C328.75 100.933 330.65 101.1 332.65 101.4C334.65 101.667 336.633 102.083 338.6 102.65C340.567 103.183 342.4 103.9 344.1 104.8C345.8 105.667 347.233 106.717 348.4 107.95C349.333 107.383 350.35 106.683 351.45 105.85C352.583 104.983 353.65 104.017 354.65 102.95C355.683 101.883 356.533 100.733 357.2 99.5C357.867 98.2667 358.2 97 358.2 95.7C358.2 93.9333 357.667 92.4167 356.6 91.15C355.533 89.8833 354.133 88.8333 352.4 88C350.667 87.1667 348.817 86.5167 346.85 86.05C344.883 85.5833 342.967 85.25 341.1 85.05C339.267 84.85 337.7 84.75 336.4 84.75C333.833 84.75 331.317 85 328.85 85.5C326.417 85.9667 323.983 86.6333 321.55 87.5C321.217 87.6 320.767 87.7833 320.2 88.05C319.667 88.2833 319.133 88.5 318.6 88.7C318.067 88.9 317.65 89 317.35 89C316.617 89 316.25 88.65 316.25 87.95C316.25 87.2833 316.65 86.7 317.45 86.2C318.25 85.7 319.3 85.2667 320.6 84.9C321.933 84.5333 323.367 84.25 324.9 84.05C326.433 83.8167 327.933 83.6333 329.4 83.5C330.867 83.3667 332.167 83.2833 333.3 83.25C334.467 83.1833 335.3 83.15 335.8 83.15C337.133 83.15 338.667 83.2333 340.4 83.4C342.167 83.5333 344 83.7833 345.9 84.15C347.833 84.4833 349.7 84.9667 351.5 85.6C353.333 86.2 354.983 86.9667 356.45 87.9C357.917 88.8333 359.083 89.9667 359.95 91.3C360.85 92.6333 361.3 94.1833 361.3 95.95C361.3 97.4833 360.917 98.95 360.15 100.35C359.383 101.75 358.4 103.05 357.2 104.25C356 105.45 354.75 106.533 353.45 107.5C352.15 108.433 350.95 109.217 349.85 109.85C349.95 109.983 350.033 110.133 350.1 110.3C350.2 110.467 350.25 110.633 350.25 110.8C350.25 111.1 350.033 111.25 349.6 111.25C349.467 111.25 349.3 111.167 349.1 111C348.9 110.8 348.75 110.65 348.65 110.55C345.05 112.283 341.383 113.45 337.65 114.05C333.95 114.65 330.117 114.95 326.15 114.95ZM326.6 113.75C330.1 113.75 333.567 113.3 337 112.4C340.467 111.5 343.767 110.267 346.9 108.7C345.467 107.4 343.683 106.283 341.55 105.35C339.45 104.383 337.233 103.65 334.9 103.15C332.6 102.617 330.433 102.35 328.4 102.35C328.1 102.35 327.8 102.35 327.5 102.35C327.2 102.35 326.917 102.367 326.65 102.4L326.1 102.45C325.533 103.417 324.933 104.45 324.3 105.55C323.7 106.65 323.183 107.783 322.75 108.95C322.35 110.117 322.15 111.267 322.15 112.4C322.15 112.933 321.917 113.25 321.45 113.35C322.317 113.517 323.167 113.617 324 113.65C324.867 113.717 325.733 113.75 326.6 113.75ZM320.25 113.05C320.083 112.883 319.967 112.667 319.9 112.4C319.833 112.167 319.8 111.933 319.8 111.7C319.8 111.167 319.917 110.5 320.15 109.7C320.383 108.867 320.667 108 321 107.1C321.367 106.167 321.717 105.3 322.05 104.5C322.417 103.7 322.717 103.05 322.95 102.55C321.883 102.717 320.75 103.05 319.55 103.55C318.383 104.017 317.383 104.683 316.55 105.55C315.75 106.417 315.35 107.517 315.35 108.85C315.35 109.583 315.633 110.25 316.2 110.85C316.8 111.417 317.483 111.883 318.25 112.25C319.017 112.617 319.683 112.883 320.25 113.05ZM373.7 113.8C372.933 113.7 372.283 113.483 371.75 113.15C371.217 112.817 370.867 112.267 370.7 111.5C368.567 111.733 366.467 111.983 364.4 112.25C362.333 112.517 360.15 112.883 357.85 113.35C357.717 113.383 357.6 113.4 357.5 113.4C357.367 113.433 357.25 113.45 357.15 113.45C356.883 113.45 356.75 113.3 356.75 113C356.75 112.7 357.167 112.383 358 112.05C358.8 111.75 359.833 111.467 361.1 111.2C362.333 110.9 363.617 110.633 364.95 110.4C366.283 110.167 367.483 109.967 368.55 109.8C369.617 109.633 370.35 109.517 370.75 109.45C370.983 108.183 371.417 106.767 372.05 105.2C372.717 103.6 373.517 101.933 374.45 100.2C375.383 98.4667 376.383 96.7667 377.45 95.1C378.517 93.4333 379.567 91.8833 380.6 90.45C381.667 89.0167 382.617 87.8 383.45 86.8H383.1C382.733 86.8 382.017 86.8167 380.95 86.85C379.883 86.85 378.683 86.9 377.35 87C376.017 87.0667 374.7 87.1833 373.4 87.35C372.133 87.5167 371.083 87.7333 370.25 88C369.417 88.2667 369 88.6167 369 89.05C369 89.55 369.283 90 369.85 90.4C370.417 90.8 371.467 91.2333 373 91.7C373.367 91.8 373.55 91.9167 373.55 92.05C373.55 92.3167 373.217 92.45 372.55 92.45C372.483 92.45 372.4 92.45 372.3 92.45C372.2 92.45 372.1 92.4333 372 92.4C371.7 92.3333 371.233 92.2167 370.6 92.05C370 91.8833 369.367 91.6667 368.7 91.4C368.033 91.1 367.467 90.7333 367 90.3C366.533 89.8333 366.3 89.3 366.3 88.7C366.267 87.9 366.75 87.25 367.75 86.75C368.75 86.25 370.033 85.8667 371.6 85.6C373.2 85.3333 374.85 85.15 376.55 85.05C378.283 84.95 379.867 84.9 381.3 84.9C382.167 84.9 382.933 84.9167 383.6 84.95C384.267 84.95 384.767 84.9667 385.1 85C385.533 84.6 386.033 84.3667 386.6 84.3C387.2 84.2 387.767 84.15 388.3 84.15C388.5 84.15 388.75 84.1833 389.05 84.25C389.383 84.2833 389.55 84.45 389.55 84.75L389.3 85.25C389.567 85.25 390.067 85.2667 390.8 85.3C391.533 85.3333 392.35 85.4 393.25 85.5C394.183 85.5667 395.067 85.6667 395.9 85.8C396.767 85.9 397.483 86.05 398.05 86.25C398.617 86.4167 398.9 86.6333 398.9 86.9C398.9 87.1667 398.783 87.3667 398.55 87.5C398.35 87.6 398.133 87.6333 397.9 87.6C394.1 87.1 390.7 86.85 387.7 86.85C386.367 88.2167 384.95 89.8 383.45 91.6C381.983 93.3667 380.55 95.25 379.15 97.25C377.783 99.25 376.567 101.267 375.5 103.3C374.467 105.333 373.7 107.283 373.2 109.15C374.067 109.05 374.933 108.967 375.8 108.9C376.7 108.833 377.583 108.8 378.45 108.8H380.05C380.85 108.8 381.7 108.85 382.6 108.95C383.533 109.017 384.333 109.217 385 109.55C385.667 109.85 386 110.333 386 111C386 111.2 385.933 111.45 385.8 111.75C385.667 112.017 385.467 112.15 385.2 112.15L384.85 112.1C383.65 111.733 382.417 111.483 381.15 111.35C379.917 111.217 378.667 111.15 377.4 111.15H376.95C377.25 111.283 377.4 111.517 377.4 111.85C377.4 112.183 377.2 112.517 376.8 112.85C376.433 113.183 375.967 113.433 375.4 113.6C374.833 113.8 374.267 113.867 373.7 113.8ZM373.95 112.65C374.417 112.683 374.9 112.617 375.4 112.45C375.9 112.283 376.35 111.867 376.75 111.2C376.217 111.233 375.533 111.25 374.7 111.25C373.867 111.25 373.167 111.283 372.6 111.35C372.667 111.583 372.8 111.833 373 112.1C373.2 112.4 373.517 112.583 373.95 112.65ZM416.388 113.35C413.055 113.35 410.738 112.867 409.438 111.9C408.171 110.9 407.538 109.533 407.538 107.8C407.538 106.7 407.855 105.533 408.488 104.3C405.721 103.233 404.338 101.617 404.338 99.45C404.338 97.9167 404.705 96.5333 405.438 95.3C406.171 94.0667 407.138 92.9667 408.338 92C409.571 91.0333 410.905 90.1833 412.338 89.45C413.238 88.9833 414.421 88.5 415.888 88C417.355 87.5 418.971 87.0167 420.738 86.55C422.505 86.0833 424.288 85.7 426.088 85.4C427.888 85.0667 429.555 84.85 431.088 84.75C431.555 84.7167 432.021 84.7 432.488 84.7C432.988 84.6667 433.488 84.65 433.988 84.65C435.755 84.65 437.488 84.7833 439.188 85.05C440.888 85.3167 442.421 85.7833 443.788 86.45C445.188 87.0833 446.305 87.9833 447.138 89.15C447.971 90.3167 448.388 91.7833 448.388 93.55C448.388 94.7167 448.155 95.9333 447.688 97.2C447.221 98.4667 446.405 99.7667 445.238 101.1C443.738 102.833 441.921 104.417 439.788 105.85C437.688 107.25 435.238 108.517 432.438 109.65C429.638 110.783 426.905 111.683 424.238 112.35C421.605 113.017 418.988 113.35 416.388 113.35ZM412.688 110.9C413.388 111.2 414.138 111.417 414.938 111.55C415.738 111.683 416.555 111.75 417.388 111.75C419.021 111.75 420.688 111.567 422.388 111.2C424.088 110.8 425.721 110.317 427.288 109.75C428.855 109.15 430.221 108.567 431.388 108C432.788 107.3 434.305 106.4 435.938 105.3C437.605 104.167 439.171 102.917 440.638 101.55C442.105 100.15 443.305 98.7 444.238 97.2C445.205 95.7 445.688 94.2333 445.688 92.8C445.688 91.5 445.271 90.4333 444.438 89.6C443.638 88.7333 442.721 88.1167 441.688 87.75C440.488 87.2833 439.221 86.9667 437.888 86.8C436.555 86.6 435.205 86.5 433.838 86.5C431.738 86.5 429.638 86.6833 427.538 87.05C425.471 87.4167 423.505 87.8667 421.638 88.4C419.805 88.9333 418.171 89.5 416.738 90.1C415.305 90.6667 414.188 91.1667 413.388 91.6C412.121 92.3 410.938 93.0667 409.838 93.9C408.738 94.7333 407.838 95.6167 407.138 96.55C406.471 97.4833 406.138 98.45 406.138 99.45C406.138 100.417 406.338 101.217 406.738 101.85C407.171 102.483 407.938 102.95 409.038 103.25C410.205 101.483 411.705 99.7333 413.538 98C415.405 96.2333 417.471 94.6333 419.738 93.2C422.038 91.7667 424.388 90.6167 426.788 89.75C429.221 88.85 431.571 88.4 433.838 88.4H433.988C434.488 88.4 434.738 88.55 434.738 88.85C434.738 89.1833 434.438 89.4 433.838 89.5C431.838 89.7667 429.788 90.3333 427.688 91.2C425.588 92.0667 423.555 93.1667 421.588 94.5C419.655 95.8 417.855 97.25 416.188 98.85C414.555 100.417 413.171 102.05 412.038 103.75C412.438 103.817 412.821 103.867 413.188 103.9C413.588 103.933 413.971 103.95 414.338 103.95C418.038 103.95 421.788 102.55 425.588 99.75C426.455 99.1167 427.038 98.6833 427.338 98.45C427.671 98.2167 427.821 98.1 427.788 98.1C428.088 98.1 428.238 98.2333 428.238 98.5C426.538 100.4 424.455 101.917 421.988 103.05C419.255 104.317 416.555 104.95 413.888 104.95C413.455 104.95 413.055 104.933 412.688 104.9C412.321 104.833 411.955 104.767 411.588 104.7C411.021 105.5 410.738 106.467 410.738 107.6C410.738 108.267 410.871 108.9 411.138 109.5C411.438 110.1 411.955 110.567 412.688 110.9Z" fill="#494949"/>
<path d="M4.16 51.048C2.496 51.048 1.664 50.1947 1.664 48.488C1.664 47.336 1.96267 45.9707 2.56 44.392C3.15733 42.8133 3.94667 41.2773 4.928 39.784C5.952 38.248 7.08267 36.9893 8.32 36.008C9.6 34.984 10.88 34.472 12.16 34.472C12.4587 34.472 12.7573 34.536 13.056 34.664C13.3547 34.7493 13.504 34.9627 13.504 35.304C13.4613 35.3893 13.3973 35.496 13.312 35.624C13.2693 35.7093 13.2053 35.7947 13.12 35.88C12.5227 36.4347 11.776 37.16 10.88 38.056C9.984 38.952 9.06667 39.976 8.128 41.128C7.232 42.2373 6.48533 43.3893 5.888 44.584C5.76 44.84 5.52533 45.3307 5.184 46.056C4.84267 46.7813 4.672 47.4427 4.672 48.04C4.672 48.5947 4.94933 48.872 5.504 48.872C5.76 48.872 6.10133 48.808 6.528 48.68C8.576 47.912 10.3253 46.8027 11.776 45.352C13.2693 43.9013 14.5493 42.3867 15.616 40.808C16.6827 39.2293 17.6 37.928 18.368 36.904C18.752 36.7333 19.2 36.648 19.712 36.648C20.1387 36.648 20.5227 36.7547 20.864 36.968C21.248 37.1387 21.44 37.48 21.44 37.992C20.672 38.9307 19.968 40.104 19.328 41.512C18.688 42.8773 18.368 44.264 18.368 45.672C18.368 46.9947 19.008 47.656 20.288 47.656C21.1413 47.656 21.952 47.2507 22.72 46.44C23.488 45.6293 24.1707 44.712 24.768 43.688C25.3653 42.6213 25.792 41.768 26.048 41.128C25.92 40.7867 25.7067 40.2107 25.408 39.4C25.152 38.5467 24.896 37.7147 24.64 36.904C24.384 36.0507 24.256 35.496 24.256 35.24C24.256 34.7707 24.384 34.4293 24.64 34.216C24.9387 34.0027 25.3013 33.896 25.728 33.896C26.7093 33.896 27.4987 34.3013 28.096 35.112C28.6933 35.9227 28.992 36.776 28.992 37.672C28.992 38.0987 28.928 38.5253 28.8 38.952C28.7147 39.3787 28.5653 39.784 28.352 40.168C28.5653 40.936 28.8427 41.7253 29.184 42.536C29.568 43.3467 30.208 43.752 31.104 43.752C32.3413 43.752 33.344 43.4747 34.112 42.92C34.88 42.3653 35.7973 41.5333 36.864 40.424C36.9067 40.3813 36.992 40.36 37.12 40.36C37.504 40.36 37.696 40.5307 37.696 40.872C37.696 41.0427 37.6107 41.2347 37.44 41.448C36.672 42.3013 35.7547 43.176 34.688 44.072C33.664 44.968 32.4907 45.416 31.168 45.416C29.2907 45.416 27.84 44.6053 26.816 42.984C26.432 43.9227 25.8773 44.8613 25.152 45.8C24.4693 46.7387 23.6587 47.528 22.72 48.168C21.824 48.7653 20.8213 49.064 19.712 49.064C18.3467 49.064 17.2587 48.7013 16.448 47.976C15.6373 47.208 15.232 45.736 15.232 43.56C14.6773 44.1147 13.9307 44.8187 12.992 45.672C12.096 46.4827 11.1147 47.3147 10.048 48.168C8.98133 48.9787 7.936 49.6613 6.912 50.216C5.888 50.7707 4.97067 51.048 4.16 51.048ZM44.608 31.976C43.968 31.976 43.4133 31.7627 42.944 31.336C42.5173 30.8667 42.304 30.312 42.304 29.672C42.304 29.032 42.5173 28.4773 42.944 28.008C43.4133 27.5387 43.968 27.304 44.608 27.304C45.248 27.304 45.8027 27.5387 46.272 28.008C46.7413 28.4773 46.976 29.032 46.976 29.672C46.976 30.312 46.7413 30.8667 46.272 31.336C45.8027 31.7627 45.248 31.976 44.608 31.976ZM39.936 50.088C38.4427 50.088 37.184 49.704 36.16 48.936C35.1787 48.1253 34.7947 46.8027 35.008 44.968C35.0933 44.3707 35.3067 43.5387 35.648 42.472C35.9893 41.3627 36.416 40.2533 36.928 39.144C37.4827 37.992 38.08 37.0107 38.72 36.2C39.36 35.3893 40 34.984 40.64 34.984C41.152 34.984 41.6427 35.1547 42.112 35.496C42.5813 35.7947 42.816 36.2213 42.816 36.776C42.816 37.0747 42.6027 37.5013 42.176 38.056C41.7493 38.568 41.2373 39.2293 40.64 40.04C40.0853 40.808 39.5947 41.6827 39.168 42.664C38.7413 43.6027 38.528 44.6267 38.528 45.736C38.528 46.76 38.7413 47.464 39.168 47.848C39.6373 48.1893 40.192 48.36 40.832 48.36C41.6427 48.36 42.5173 48.1467 43.456 47.72C44.3947 47.2507 45.3333 46.6747 46.272 45.992C46.8267 45.608 47.6373 44.904 48.704 43.88C49.8133 42.856 51.0933 41.5547 52.544 39.976C52.6293 39.8907 52.7147 39.848 52.8 39.848C53.1413 39.848 53.312 40.0827 53.312 40.552C53.312 40.68 53.056 41.0427 52.544 41.64C52.032 42.1947 51.4133 42.8347 50.688 43.56C50.0053 44.2853 49.344 44.968 48.704 45.608C48.064 46.2053 47.5947 46.6107 47.296 46.824C46.2293 47.6347 45.0773 48.3813 43.84 49.064C42.6453 49.7467 41.344 50.088 39.936 50.088ZM55.8885 49.384C54.1818 49.384 52.9232 48.936 52.1125 48.04C51.3018 47.144 50.8965 45.8853 50.8965 44.264C50.8965 42.7707 51.2378 41.128 51.9205 39.336C52.6032 37.5013 53.3498 35.9867 54.1605 34.792C53.7765 34.8347 53.3712 34.8987 52.9445 34.984C52.5605 35.0267 52.1552 35.048 51.7285 35.048C51.0458 35.048 50.4272 34.9413 49.8725 34.728C49.3605 34.472 49.1045 34.0027 49.1045 33.32C49.1045 32.9787 49.2538 32.744 49.5525 32.616C49.8512 32.488 50.1498 32.4453 50.4485 32.488L55.2485 32.744C55.7605 31.848 56.3792 30.8027 57.1045 29.608C57.8725 28.3707 58.7045 27.176 59.6005 26.024C60.5392 24.872 61.5418 23.9333 62.6085 23.208C63.6752 22.44 64.7845 22.056 65.9365 22.056C66.1925 22.056 66.5338 22.0987 66.9605 22.184C67.4298 22.2267 67.7285 22.44 67.8565 22.824C67.8992 22.9093 67.9205 23.016 67.9205 23.144C67.9205 23.4 67.8138 23.6347 67.6005 23.848C67.3872 24.0187 67.1738 24.2107 66.9605 24.424C65.5525 25.7893 64.2298 27.1333 62.9925 28.456C61.7978 29.7787 60.6245 31.2507 59.4725 32.872C60.3258 32.9147 61.1578 32.936 61.9685 32.936C62.8218 32.8933 63.6538 32.872 64.4645 32.872C64.8912 32.872 65.2965 32.9147 65.6805 33C66.1072 33.0853 66.3418 33.2987 66.3845 33.64C66.3845 33.896 66.0432 34.088 65.3605 34.216C64.6778 34.344 63.8672 34.4507 62.9285 34.536C61.9898 34.5787 61.0938 34.6213 60.2405 34.664C59.3872 34.664 58.8112 34.664 58.5125 34.664C58.0005 35.432 57.4245 36.4133 56.7845 37.608C56.1872 38.8027 55.6538 40.0187 55.1845 41.256C54.7578 42.4933 54.5445 43.5813 54.5445 44.52C54.5445 46.6107 55.4405 47.656 57.2325 47.656C58.4698 47.656 59.6858 47.3787 60.8805 46.824C62.0752 46.2693 63.2058 45.5867 64.2725 44.776C65.3818 43.9653 66.3418 43.176 67.1525 42.408C67.9632 41.64 68.5605 41.064 68.9445 40.68C69.1152 40.5093 69.2645 40.424 69.3925 40.424C69.5632 40.424 69.6485 40.552 69.6485 40.808C69.6485 41.2347 69.5205 41.576 69.2645 41.832C68.0272 43.0693 66.6832 44.2853 65.2325 45.48C63.7818 46.632 62.2672 47.5707 60.6885 48.296C59.1525 49.0213 57.5525 49.384 55.8885 49.384ZM82.2995 49.448C80.8488 49.448 79.6968 49.064 78.8435 48.296C78.0328 47.528 77.6275 46.3973 77.6275 44.904C77.6275 43.9653 77.8408 42.8347 78.2675 41.512C78.6942 40.1893 79.1208 39.1227 79.5475 38.312C77.2008 39.9333 75.3235 41.64 73.9155 43.432C72.5502 45.224 71.3128 46.8667 70.2035 48.36C69.9475 48.7013 69.5422 48.936 68.9875 49.064C68.4755 49.192 68.0062 49.256 67.5795 49.256C67.2382 49.256 66.7262 49.1707 66.0435 49C65.3608 48.872 65.0195 48.552 65.0195 48.04C65.0195 47.528 65.2542 46.76 65.7235 45.736C66.1928 44.6693 66.7048 43.624 67.2595 42.6C67.8142 41.576 68.2195 40.7867 68.4755 40.232C69.2008 38.9093 70.1395 37.288 71.2915 35.368C72.4862 33.4053 73.8302 31.3147 75.3235 29.096C76.8595 26.8347 78.4808 24.616 80.1875 22.44C81.8942 20.2213 83.6435 18.216 85.4355 16.424C87.2702 14.5893 89.0835 13.1387 90.8755 12.072C92.6675 10.9627 94.3528 10.408 95.9315 10.408C97.1262 10.408 98.0648 10.6853 98.7475 11.24C99.4302 11.7947 99.7715 12.6907 99.7715 13.928C99.7715 15.208 99.2808 16.5947 98.2995 18.088C97.3182 19.5813 96.0382 21.1173 94.4595 22.696C92.8808 24.232 91.1955 25.7253 89.4035 27.176C87.6115 28.584 85.8835 29.8853 84.2195 31.08C82.5982 32.2747 81.2542 33.256 80.1875 34.024C79.0355 34.8347 77.8408 35.6453 76.6035 36.456C75.4088 37.224 74.3208 38.0987 73.3395 39.08C73.2115 39.208 72.9768 39.5493 72.6355 40.104C72.2942 40.6587 71.9315 41.2773 71.5475 41.96C71.2062 42.6427 70.8862 43.2827 70.5875 43.88C70.2888 44.4347 70.0968 44.8187 70.0115 45.032C70.3955 44.648 71.0142 44.072 71.8675 43.304C72.7208 42.4933 73.6808 41.6187 74.7475 40.68C75.8142 39.7413 76.8808 38.8453 77.9475 37.992C79.0568 37.096 80.0382 36.3707 80.8915 35.816C81.7875 35.2613 82.4488 34.984 82.8755 34.984C83.4728 34.984 83.9635 35.1333 84.3475 35.432C84.7315 35.7307 84.9235 36.1787 84.9235 36.776C84.4968 37.544 83.9848 38.4187 83.3875 39.4C82.7902 40.3813 82.2568 41.384 81.7875 42.408C81.3182 43.432 81.0835 44.392 81.0835 45.288C81.0835 45.9707 81.2755 46.504 81.6595 46.888C82.0862 47.272 82.5982 47.464 83.1955 47.464C84.3048 47.464 85.4355 47.144 86.5875 46.504C87.7395 45.864 88.8062 45.1173 89.7875 44.264C90.8115 43.368 91.6862 42.5147 92.4115 41.704C93.1795 40.8933 93.7342 40.3173 94.0755 39.976C94.1608 39.8907 94.2675 39.848 94.3955 39.848C94.7368 39.848 94.9075 40.0613 94.9075 40.488C94.9075 40.6587 94.7155 40.9573 94.3315 41.384C93.9475 41.8107 93.6702 42.1093 93.4995 42.28C92.4328 43.432 91.3235 44.5627 90.1715 45.672C89.0622 46.7813 87.8675 47.6987 86.5875 48.424C85.3075 49.1067 83.8782 49.448 82.2995 49.448ZM74.1715 36.648C75.1955 35.9653 76.6035 35.0053 78.3955 33.768C80.1875 32.488 82.1075 31.0373 84.1555 29.416C86.2462 27.7947 88.2088 26.088 90.0435 24.296C91.9208 22.504 93.4568 20.7547 94.6515 19.048C95.8462 17.2987 96.4435 15.6987 96.4435 14.248C96.4435 13.3947 96.2728 12.8187 95.9315 12.52C95.5902 12.2213 95.2488 12.072 94.9075 12.072C93.9262 12.072 92.7955 12.5413 91.5155 13.48C90.2782 14.4187 88.9555 15.6773 87.5475 17.256C86.1395 18.792 84.7528 20.4987 83.3875 22.376C82.0222 24.2107 80.7208 26.0667 79.4835 27.944C78.2462 29.7787 77.1582 31.464 76.2195 33C75.3235 34.536 74.6408 35.752 74.1715 36.648ZM109.526 49.896C107.478 49.896 105.984 49.2347 105.046 47.912C104.107 46.5467 103.638 44.9253 103.638 43.048C103.638 41.5973 104.064 39.8053 104.918 37.672C105.771 35.5387 106.902 33.256 108.31 30.824C109.76 28.3493 111.382 25.9387 113.174 23.592C115.008 21.2027 116.886 19.0267 118.806 17.064C120.768 15.1013 122.667 13.544 124.502 12.392C126.379 11.1973 128.064 10.6 129.558 10.6C130.283 10.6 130.987 10.8987 131.67 11.496C132.352 12.0933 132.694 12.776 132.694 13.544C132.694 14.7387 132.224 16.1467 131.286 17.768C130.347 19.3893 129.11 21.1173 127.574 22.952C126.038 24.7867 124.331 26.6427 122.454 28.52C120.619 30.3973 118.742 32.1893 116.822 33.896C114.944 35.6027 113.174 37.16 111.51 38.568C109.888 39.9333 108.544 41.0213 107.478 41.832C107.435 42.1733 107.392 42.5147 107.35 42.856C107.35 43.1547 107.35 43.4747 107.35 43.816C107.35 45.0107 107.584 45.9707 108.054 46.696C108.523 47.4213 109.398 47.784 110.678 47.784C112.043 47.784 113.366 47.464 114.646 46.824C115.968 46.184 117.206 45.3947 118.358 44.456C119.51 43.5173 120.512 42.6213 121.366 41.768C122.262 40.872 122.966 40.168 123.478 39.656C123.52 39.6133 123.584 39.592 123.67 39.592C123.84 39.592 123.968 39.72 124.054 39.976C124.182 40.1893 124.203 40.36 124.118 40.488C123.648 41.0853 123.072 41.7253 122.39 42.408C121.75 43.0907 121.238 43.6453 120.854 44.072C119.403 45.5227 117.696 46.8667 115.734 48.104C113.771 49.2987 111.702 49.896 109.526 49.896ZM107.606 40.04C109.014 39.1013 110.635 37.7787 112.47 36.072C114.347 34.3227 116.246 32.4027 118.166 30.312C120.128 28.1787 121.92 26.0453 123.542 23.912C125.206 21.736 126.55 19.7093 127.574 17.832C128.598 15.912 129.11 14.3547 129.11 13.16C129.11 12.9467 129.067 12.7547 128.982 12.584C128.939 12.3707 128.768 12.264 128.47 12.264C127.616 12.264 126.614 12.712 125.462 13.608C124.31 14.4613 123.115 15.592 121.878 17C120.64 18.3653 119.424 19.816 118.23 21.352C117.078 22.888 116.054 24.3173 115.158 25.64C114.262 26.9627 113.579 27.9867 113.11 28.712C112 30.504 110.955 32.36 109.974 34.28C108.992 36.2 108.203 38.12 107.606 40.04ZM123.251 49.832C122.27 49.832 121.48 49.576 120.883 49.064C120.328 48.5947 120.051 47.848 120.051 46.824C120.051 45.2027 120.456 43.6667 121.267 42.216C122.12 40.7227 123.016 39.3787 123.955 38.184C123.912 37.9707 123.87 37.7573 123.827 37.544C123.827 37.288 123.827 37.0533 123.827 36.84C123.827 35.6027 124.147 34.4507 124.787 33.384C125.47 32.3173 126.344 31.464 127.411 30.824C128.52 30.1413 129.672 29.8 130.867 29.8C132.36 29.8 133.47 30.2267 134.195 31.08C134.963 31.8907 135.347 33.0427 135.347 34.536C135.347 36.1147 134.963 37.736 134.195 39.4C133.47 41.0213 132.702 42.4933 131.891 43.816C132.104 43.944 132.424 44.072 132.851 44.2C133.32 44.328 133.726 44.392 134.067 44.392C135.56 44.392 136.84 44.136 137.907 43.624C139.016 43.0693 140.318 42.1093 141.811 40.744C142.024 40.5307 142.195 40.424 142.323 40.424C142.494 40.424 142.579 40.5733 142.579 40.872C142.579 41.2133 142.43 41.5547 142.131 41.896C141.192 43.048 139.955 43.9867 138.419 44.712C136.883 45.4373 135.39 45.8 133.939 45.8C133.427 45.8 132.915 45.7573 132.403 45.672C131.891 45.5867 131.4 45.4587 130.931 45.288C129.992 46.4827 128.883 47.5493 127.603 48.488C126.323 49.384 124.872 49.832 123.251 49.832ZM130.163 42.984C130.675 41.96 131.123 40.7867 131.507 39.464C131.891 38.1413 132.126 36.7973 132.211 35.432C132.296 34.7067 132.126 33.96 131.699 33.192C131.315 32.424 130.632 32.04 129.651 32.04C128.712 32.04 127.923 32.3813 127.283 33.064C126.686 33.7467 126.323 34.6427 126.195 35.752C126.494 35.5387 126.878 35.3467 127.347 35.176C127.859 35.0053 128.286 34.92 128.627 34.92C129.182 34.92 129.63 35.0693 129.971 35.368C130.312 35.624 130.483 35.9227 130.483 36.264C130.483 36.6907 130.206 36.9893 129.651 37.16C129.139 37.3307 128.584 37.6507 127.987 38.12C127.432 38.5893 127.027 39.016 126.771 39.4C127.112 40.0827 127.603 40.744 128.243 41.384C128.883 42.024 129.523 42.5573 130.163 42.984ZM124.787 47.976C125.214 47.976 125.747 47.7627 126.387 47.336C127.027 46.8667 127.624 46.3547 128.179 45.8C128.776 45.2453 129.203 44.7973 129.459 44.456C128.862 44.1147 128.136 43.56 127.283 42.792C126.472 42.024 125.832 41.3627 125.363 40.808C125.107 41.1067 124.83 41.6187 124.531 42.344C124.232 43.0267 123.976 43.752 123.763 44.52C123.55 45.288 123.443 45.928 123.443 46.44C123.443 47.464 123.891 47.976 124.787 47.976ZM145.317 48.872C144.165 48.872 143.333 48.5307 142.821 47.848C142.309 47.1227 142.053 46.2267 142.053 45.16C142.053 44.776 142.181 44.072 142.437 43.048C142.693 42.024 143.098 41.0427 143.653 40.104C143.525 40.232 143.184 40.616 142.629 41.256C142.117 41.896 141.584 42.5147 141.029 43.112C140.517 43.7093 140.133 44.008 139.877 44.008C139.706 44.008 139.578 43.9013 139.493 43.688C139.408 43.432 139.45 43.2187 139.621 43.048C140.005 42.6213 140.496 42.0667 141.093 41.384C141.733 40.6587 142.373 39.912 143.013 39.144C143.696 38.376 144.314 37.6933 144.869 37.096C145.424 36.4987 145.808 36.0933 146.021 35.88C146.789 35.1547 147.77 34.792 148.965 34.792C149.221 34.792 149.562 34.8773 149.989 35.048C150.458 35.176 150.693 35.4107 150.693 35.752C150.693 36.008 150.394 36.52 149.797 37.288C149.2 38.0133 148.517 38.888 147.749 39.912C146.981 40.8933 146.362 41.9387 145.893 43.048C145.637 43.6027 145.445 44.1147 145.317 44.584C145.232 45.0107 145.189 45.3947 145.189 45.736C145.189 46.8453 145.658 47.4 146.597 47.4C147.536 47.4 148.602 46.888 149.797 45.864C150.522 45.2667 151.333 44.4347 152.229 43.368C153.125 42.3013 153.957 41.256 154.725 40.232C155.493 39.1653 156.026 38.376 156.325 37.864C156.282 37.352 156.24 36.84 156.197 36.328C156.154 35.816 156.133 35.304 156.133 34.792C156.133 33.512 156.602 32.3813 157.541 31.4C158.522 30.376 159.674 29.864 160.997 29.864C161.978 29.864 162.469 30.376 162.469 31.4C162.469 32.168 162.213 33.064 161.701 34.088C161.189 35.0693 160.592 36.008 159.909 36.904C159.269 37.8 158.693 38.5467 158.181 39.144V39.4C158.181 40.7653 158.501 41.8533 159.141 42.664C159.824 43.432 160.656 43.8587 161.637 43.944C163.258 44.072 164.517 43.816 165.413 43.176C166.352 42.4933 167.418 41.4907 168.613 40.168C168.741 40.04 168.848 39.976 168.933 39.976C169.189 39.976 169.317 40.1893 169.317 40.616C169.317 40.7867 169.274 40.9573 169.189 41.128C168.08 42.7067 166.778 43.8373 165.285 44.52C163.792 45.16 162.49 45.3947 161.381 45.224C160.058 45.0107 158.992 44.52 158.181 43.752C157.37 42.9413 156.901 41.7467 156.773 40.168C155.92 41.448 154.832 42.7707 153.509 44.136C152.186 45.4587 150.8 46.5893 149.349 47.528C147.898 48.424 146.554 48.872 145.317 48.872ZM173.675 49.448C171.797 49.448 170.155 49 168.747 48.104C167.339 47.208 166.635 45.7147 166.635 43.624C166.635 42.344 166.976 41.0213 167.659 39.656C168.384 38.248 169.323 36.9467 170.475 35.752C171.627 34.5573 172.864 33.5973 174.187 32.872C175.552 32.104 176.896 31.72 178.219 31.72C178.901 31.72 179.477 31.912 179.947 32.296C180.416 32.6373 180.651 33.1707 180.651 33.896C180.651 34.7493 180.267 35.624 179.499 36.52C178.773 37.416 177.856 38.2693 176.747 39.08C175.68 39.848 174.592 40.5307 173.483 41.128C172.373 41.6827 171.456 42.088 170.731 42.344C170.603 42.856 170.539 43.3893 170.539 43.944C170.539 44.9253 170.795 45.8 171.307 46.568C171.861 47.336 172.8 47.72 174.123 47.72C175.445 47.72 176.64 47.464 177.707 46.952C178.816 46.3973 179.819 45.736 180.715 44.968C181.611 44.1573 182.421 43.3893 183.147 42.664C183.744 42.0667 184.235 41.576 184.619 41.192C185.003 40.7653 185.344 40.4027 185.643 40.104C185.771 39.976 185.963 39.912 186.219 39.912C186.432 39.912 186.603 39.9973 186.731 40.168C186.859 40.296 186.816 40.4667 186.603 40.68C186.432 40.8933 186.133 41.2133 185.707 41.64C185.323 42.024 184.939 42.4293 184.555 42.856C184.213 43.24 183.957 43.5173 183.787 43.688C181.909 45.6933 180.117 47.1653 178.411 48.104C176.704 49 175.125 49.448 173.675 49.448ZM170.923 41.064C171.349 40.9787 171.947 40.7227 172.715 40.296C173.525 39.8267 174.315 39.2933 175.083 38.696C175.424 38.3973 175.893 37.9493 176.491 37.352C177.088 36.7547 177.493 36.2427 177.707 35.816C178.005 35.2613 178.155 34.8133 178.155 34.472C178.155 33.96 177.877 33.704 177.323 33.704C177.024 33.704 176.704 33.768 176.363 33.896C175.936 34.0667 175.424 34.4933 174.827 35.176C174.229 35.8587 173.76 36.392 173.419 36.776C172.907 37.416 172.416 38.12 171.947 38.888C171.52 39.6133 171.179 40.3387 170.923 41.064Z" fill="#494949"/>
</svg>
