<svg width="34" height="34" viewBox="0 0 34 34" fill="none" xmlns="http://www.w3.org/2000/svg">
<path d="M10.5754 17.1033C11.9201 19.8801 14.1655 22.1197 16.9457 23.4572C17.1508 23.5544 17.3777 23.5964 17.6039 23.5792C17.8302 23.562 18.0481 23.4862 18.2361 23.3592L22.3197 20.6314C22.5001 20.5091 22.7086 20.4344 22.9256 20.4144C23.1427 20.3944 23.3613 20.4297 23.5611 20.5171L31.2054 23.8003C31.4667 23.909 31.685 24.1006 31.8267 24.3456C31.9683 24.5906 32.0255 24.8753 31.9895 25.156C31.7472 27.0471 30.8242 28.7851 29.3931 30.0448C27.962 31.3045 26.121 31.9996 24.2144 32C18.3228 32 12.6725 29.6596 8.50646 25.4935C4.34044 21.3275 2 15.6772 2 9.78557C2.00043 7.87904 2.69553 6.038 3.95524 4.60692C5.21495 3.17584 6.95294 2.25281 8.84401 2.01052C9.12469 1.97446 9.40944 2.03168 9.65442 2.17335C9.89939 2.31502 10.091 2.53329 10.1997 2.79456L13.4829 10.4553C13.5683 10.6518 13.604 10.8664 13.5869 11.08C13.5698 11.2937 13.5004 11.4998 13.3849 11.6803L10.6571 15.8292C10.5357 16.0169 10.4644 16.2325 10.4501 16.4556C10.4358 16.6786 10.4789 16.9016 10.5754 17.1033V17.1033Z" stroke="#48C95F" stroke-width="4" stroke-linecap="round" stroke-linejoin="round"/>
</svg>
