<svg width="320" height="35" viewBox="0 0 320 35" fill="none" xmlns="http://www.w3.org/2000/svg">
<path fill-rule="evenodd" clip-rule="evenodd" d="M146.74 14.6268C146.74 10.6886 150.195 7.65625 154.25 7.65625C156.34 7.65625 158.18 8.63645 159.5 9.90475C160.82 8.63645 162.659 7.65625 164.75 7.65625C168.805 7.65625 172.26 10.6886 172.26 14.6268C172.26 17.3246 171.11 19.6968 169.516 21.7022C167.925 23.7042 165.844 25.4031 163.851 26.7838C163.09 27.3111 162.32 27.7974 161.615 28.1563C160.953 28.4934 160.192 28.8021 159.5 28.8021C158.808 28.8021 158.047 28.4934 157.385 28.1563C156.68 27.7974 155.91 27.3111 155.149 26.7838C153.156 25.4031 151.075 23.7042 149.484 21.7022C147.89 19.6968 146.74 17.3246 146.74 14.6268ZM154.25 9.84375C151.218 9.84375 148.927 12.0737 148.927 14.6268C148.927 16.6736 149.796 18.5792 151.196 20.3411C152.6 22.1066 154.488 23.6642 156.395 24.9856C157.116 25.4855 157.796 25.9109 158.378 26.2071C159.002 26.525 159.364 26.6146 159.5 26.6146C159.636 26.6146 159.998 26.525 160.622 26.2071C161.204 25.9109 161.884 25.4855 162.605 24.9856C164.512 23.6642 166.4 22.1066 167.804 20.3411C169.204 18.5792 170.073 16.6736 170.073 14.6268C170.073 12.0737 167.782 9.84375 164.75 9.84375C163.008 9.84375 161.382 10.8842 160.367 12.2047C160.16 12.4739 159.84 12.6317 159.5 12.6317C159.16 12.6317 158.84 12.4739 158.633 12.2047C157.618 10.8842 155.991 9.84375 154.25 9.84375Z" fill="#8D9E3D"/>
<line x1="192" y1="17.5" x2="320" y2="17.5" stroke="#8D9E3D"/>
<line y1="17.5" x2="128" y2="17.5" stroke="#8D9E3D"/>
</svg>
