<svg width="55" height="55" viewBox="0 0 55 55" fill="none" xmlns="http://www.w3.org/2000/svg">
<rect width="55" height="55" rx="27.5" fill="#48C95F"/>
<path d="M38.3994 16.5859C35.6829 13.8789 32.061 12.375 28.2378 12.375C20.2896 12.375 13.8506 18.7917 13.8506 26.7122C13.8506 29.2188 14.5549 31.7253 15.7622 33.8307L13.75 41.25L21.3963 39.2448C23.5091 40.3477 25.8232 40.9492 28.2378 40.9492C36.186 40.9492 42.625 34.5326 42.625 26.612C42.5244 22.9023 41.1159 19.293 38.3994 16.5859ZM35.1799 31.8255C34.878 32.6276 33.4695 33.4297 32.7652 33.5299C32.1616 33.6302 31.3567 33.6302 30.5518 33.4297C30.0488 33.2292 29.3445 33.0286 28.5396 32.6276C24.9177 31.1237 22.6037 27.5143 22.4024 27.2135C22.2012 27.013 20.8933 25.3086 20.8933 23.5039C20.8933 21.6992 21.7988 20.8971 22.1006 20.4961C22.4024 20.0951 22.8049 20.0951 23.1067 20.0951C23.3079 20.0951 23.6098 20.0951 23.811 20.0951C24.0122 20.0951 24.314 19.9948 24.6159 20.6966C24.9177 21.3984 25.6219 23.2031 25.7226 23.3034C25.8232 23.5039 25.8232 23.7044 25.7226 23.9049C25.6219 24.1055 25.5213 24.306 25.3201 24.5065C25.1189 24.707 24.9177 25.0078 24.8171 25.1081C24.6158 25.3086 24.4146 25.5091 24.6159 25.8099C24.8171 26.2109 25.5213 27.3138 26.628 28.3164C28.0366 29.5195 29.1433 29.9206 29.5457 30.1211C29.9482 30.3216 30.1494 30.2214 30.3506 30.0208C30.5518 29.8203 31.2561 29.0182 31.4573 28.6172C31.6585 28.2161 31.9604 28.3164 32.2622 28.4167C32.564 28.5169 34.375 29.4193 34.6768 29.6198C35.0793 29.8203 35.2805 29.9206 35.3811 30.0208C35.4817 30.3216 35.4817 31.0234 35.1799 31.8255Z" fill="white"/>
</svg>
